<?xml version="1.0" standalone="no"?>
<!DOCTYPE svg PUBLIC "-//W3C//DTD SVG 20010904//EN"
 "http://www.w3.org/TR/2001/REC-SVG-20010904/DTD/svg10.dtd">
<svg version="1.0" xmlns="http://www.w3.org/2000/svg"
 width="512.000000pt" height="512.000000pt" viewBox="0 0 512.000000 512.000000"
 preserveAspectRatio="xMidYMid meet">
<metadata>
Created by potrace 1.14, written by Peter Selinger 2001-2017
</metadata>
<g transform="translate(0.000000,512.000000) scale(0.100000,-0.100000)"
fill="#000000" stroke="none">
<path d="M3710 4360 c-122 -25 -184 -46 -282 -97 -213 -109 -393 -295 -483
-498 -14 -33 -30 -69 -35 -80 -12 -27 -46 -169 -54 -226 l-7 -46 -67 -21
c-181 -59 -301 -76 -497 -74 -82 2 -160 0 -171 -3 -12 -2 -27 -18 -34 -34 -10
-25 -17 -29 -39 -26 -21 4 -108 12 -143 15 -5 0 -8 8 -8 18 0 40 -35 60 -117
67 -43 4 -87 9 -98 11 -11 2 -72 7 -135 10 -176 9 -295 -28 -403 -127 -18 -17
-52 -42 -77 -56 -204 -120 -345 -288 -416 -498 -22 -68 -27 -101 -30 -215 -2
-88 1 -160 11 -206 16 -85 64 -231 98 -302 l24 -50 -30 -48 c-70 -113 -75
-173 -26 -326 17 -56 32 -111 32 -122 3 -83 -89 -183 -184 -201 -9 -2 -37 6
-61 18 -36 18 -60 21 -148 21 -123 -1 -185 -22 -243 -82 -60 -63 -82 -116 -82
-199 1 -65 4 -76 31 -110 54 -67 94 -83 209 -83 55 0 118 5 140 11 97 27 175
114 197 221 12 57 13 59 66 83 30 14 75 43 101 64 l47 40 24 -77 c65 -217 104
-329 122 -349 35 -38 72 -43 308 -40 252 3 266 6 317 74 24 31 28 46 28 103 0
60 -3 70 -39 118 -45 62 -108 113 -171 139 -34 14 -47 25 -54 48 -5 17 -25 84
-45 150 -20 66 -36 120 -36 121 0 0 30 14 68 29 37 16 92 43 122 61 30 18 58
29 61 26 7 -7 14 -30 161 -505 101 -328 113 -350 185 -361 57 -9 393 -5 434 5
106 26 160 150 108 251 -28 55 -106 131 -164 161 l-48 24 -43 144 c-24 79 -44
149 -44 155 0 5 24 18 53 29 148 52 297 134 417 230 64 52 166 155 205 207 12
16 34 30 53 34 31 6 32 6 32 -30 0 -69 37 -125 105 -160 l30 -16 1 -172 c1
-144 5 -188 23 -263 13 -49 25 -99 27 -110 27 -130 104 -419 118 -440 35 -53
47 -54 502 -52 472 3 472 3 520 79 38 59 39 123 4 184 -40 69 -101 127 -169
160 l-59 29 -23 105 c-19 85 -24 142 -27 301 l-3 195 78 23 c83 24 221 91 247
120 18 20 27 62 15 76 -4 6 19 37 56 76 55 57 68 65 93 61 44 -6 67 12 106 81
83 148 108 256 111 480 2 99 6 181 9 184 2 3 49 7 103 9 196 8 219 15 269 89
26 37 134 362 134 402 0 60 -40 114 -127 173 -45 30 -112 70 -148 89 -38 20
-65 41 -65 50 0 71 -57 151 -130 185 l-45 21 1 105 c0 107 -13 173 -43 219
-29 45 -84 93 -132 115 -44 20 -62 21 -341 22 -242 1 -310 -2 -380 -16z
m-2740 -1765 l-5 -341 -52 -77 c-29 -43 -53 -82 -53 -87 0 -5 -4 -11 -9 -15
-15 -9 -72 181 -85 285 -21 167 13 320 99 450 42 62 104 136 108 129 1 -2 0
-157 -3 -344z"/>
</g>
</svg>
